<?xml version="1.0" standalone="no"?>
<!DOCTYPE svg PUBLIC "-//W3C//DTD SVG 20010904//EN"
 "http://www.w3.org/TR/2001/REC-SVG-20010904/DTD/svg10.dtd">
<svg version="1.0" xmlns="http://www.w3.org/2000/svg"
 width="552.000000pt" height="552.000000pt" viewBox="0 0 552.000000 552.000000"
 preserveAspectRatio="xMidYMid meet">
<metadata>
Created by potrace 1.14, written by Peter Selinger 2001-2017
</metadata>
<g transform="translate(0.000000,552.000000) scale(0.100000,-0.100000)"
fill="#000000" stroke="none">
<path d="M1450 4752 c-58 -4 -174 -34 -191 -48 -8 -8 -19 -14 -24 -14 -8 0
-89 -62 -115 -89 -43 -44 -171 -261 -154 -261 3 0 -3 -12 -13 -27 -11 -16 -37
-64 -59 -108 -21 -44 -41 -82 -44 -85 -3 -3 -22 -40 -43 -83 -39 -82 -46 -127
-22 -147 8 -7 15 -9 15 -5 0 4 6 3 13 -2 19 -14 432 -9 496 6 46 12 57 19 80
56 15 23 35 60 45 82 19 43 60 73 98 73 37 0 70 -43 148 -194 39 -77 78 -149
86 -160 8 -11 14 -28 14 -37 0 -10 4 -19 9 -21 4 -1 22 -30 38 -63 29 -58 121
-236 273 -530 40 -77 80 -153 88 -170 9 -16 20 -33 25 -36 5 -3 8 -10 7 -15
-1 -9 82 -174 122 -244 11 -19 36 -64 55 -100 19 -36 39 -71 45 -77 6 -7 7
-13 2 -13 -5 0 -4 -4 2 -8 21 -15 134 -223 134 -247 0 -8 4 -15 8 -15 4 0 30
-44 57 -98 27 -53 51 -99 54 -102 7 -6 80 -152 82 -162 2 -18 157 -309 179
-338 48 -62 87 -71 310 -75 234 -4 293 17 296 104 1 47 -11 75 -111 251 -47
82 -85 151 -85 153 0 3 -17 34 -38 68 -21 35 -45 79 -53 96 -8 18 -17 33 -21
33 -5 0 -8 9 -8 19 0 11 -3 21 -7 23 -8 3 -16 17 -126 228 -38 74 -78 147 -88
162 -11 14 -19 33 -19 42 0 9 -3 16 -7 16 -5 0 -19 24 -33 53 -14 28 -29 55
-35 59 -5 4 -6 8 -2 8 5 0 0 15 -11 33 -11 17 -41 73 -67 122 -26 50 -58 109
-72 133 -14 23 -21 42 -16 42 4 0 3 4 -3 8 -6 4 -33 50 -61 102 -27 52 -59
110 -71 129 -12 19 -19 38 -16 43 3 4 1 8 -4 8 -4 0 -44 71 -87 158 -44 86
-83 159 -87 160 -4 2 -8 9 -8 15 0 17 -64 147 -72 147 -4 0 -8 6 -8 13 0 15
-64 146 -82 167 -7 8 -11 16 -9 18 3 3 -69 152 -79 162 -3 3 -40 75 -84 160
-43 85 -81 157 -85 160 -4 3 -17 21 -29 41 -34 56 -155 159 -187 159 -8 0 -15
4 -15 8 0 7 -54 26 -110 38 -65 14 -162 21 -220 16z"/>
<path d="M3087 3694 c-1 -1 -27 -4 -57 -7 -30 -3 -64 -8 -75 -10 -11 -3 -26
-6 -32 -6 -24 -2 -46 -62 -40 -110 6 -44 25 -87 132 -286 27 -50 96 -182 153
-295 181 -353 189 -369 200 -382 6 -7 11 -16 11 -21 0 -4 15 -33 33 -65 19
-31 54 -97 78 -147 25 -49 51 -95 58 -103 7 -7 10 -17 7 -22 -3 -5 -2 -10 3
-12 4 -1 25 -38 47 -80 22 -43 43 -78 47 -78 5 0 8 -7 8 -15 0 -9 10 -32 23
-53 13 -20 56 -103 97 -185 54 -109 73 -158 74 -190 1 -35 -24 -93 -158 -362
-176 -353 -189 -393 -146 -447 37 -48 172 -68 355 -54 62 4 145 31 145 47 0 5
6 9 13 9 11 0 77 90 77 105 0 3 5 11 10 18 6 7 37 64 69 127 94 185 146 285
151 290 3 3 6 11 8 18 1 7 14 31 27 52 14 22 22 40 18 40 -5 0 -3 4 3 8 7 4
23 30 37 57 27 55 194 381 248 485 19 36 37 67 42 68 4 2 7 12 7 22 0 10 4 21
9 25 6 3 25 36 44 73 74 145 138 266 148 279 6 7 8 13 5 13 -4 0 5 20 19 43
14 24 22 47 18 50 -3 4 -2 7 3 7 6 0 16 16 24 35 8 19 17 35 22 35 4 0 8 5 8
11 0 6 16 38 37 72 31 54 114 211 274 527 24 47 48 88 54 92 5 4 7 8 2 8 -4 0
-1 10 8 23 8 13 12 27 8 30 -3 4 -2 7 3 7 10 0 34 50 50 100 12 40 5 103 -14
120 -34 29 -96 36 -309 34 -203 -2 -222 -9 -266 -96 -37 -73 -91 -172 -97
-178 -6 -6 -50 -98 -50 -105 0 -3 -10 -22 -21 -42 -12 -21 -51 -94 -86 -163
-35 -69 -74 -141 -85 -160 -11 -19 -41 -75 -65 -125 -24 -49 -49 -99 -56 -110
-33 -58 -95 -185 -89 -185 4 0 2 -4 -4 -8 -6 -4 -32 -46 -57 -94 -24 -48 -50
-93 -56 -100 -49 -59 -60 -72 -61 -62 0 6 -12 29 -27 50 -14 21 -53 91 -86
154 -33 63 -79 151 -103 195 -23 44 -55 105 -71 135 -15 30 -30 57 -33 60 -3
3 -12 19 -20 35 -8 17 -25 48 -38 69 -14 22 -25 45 -26 52 -1 6 -7 18 -12 25
-10 13 -19 32 -82 169 -13 30 -45 91 -70 135 -25 44 -61 109 -80 145 -78 148
-110 185 -169 196 -31 6 -271 13 -276 8z"/>
<path d="M718 3552 c-35 -6 -70 -15 -78 -19 -8 -3 -17 -7 -20 -8 -33 -11 -84
-41 -110 -65 -9 -8 -37 -34 -63 -58 -92 -83 -135 -160 -174 -312 -24 -91 -18
-323 9 -356 5 -7 8 -16 7 -20 -1 -5 1 -18 5 -29 18 -48 41 -100 46 -105 3 -3
17 -23 31 -45 14 -22 39 -54 55 -71 16 -18 37 -40 46 -50 62 -69 220 -150 328
-168 19 -3 46 -9 60 -12 14 -3 185 -7 380 -8 329 -2 359 -4 395 -22 48 -23 65
-53 65 -119 0 -63 -28 -111 -76 -131 -56 -23 -136 -28 -479 -28 -279 0 -371 4
-485 19 -65 8 -184 52 -217 80 -7 5 -40 30 -73 55 -33 25 -60 51 -60 58 0 6
-5 12 -10 12 -6 0 -28 28 -50 63 -22 34 -44 67 -50 74 -5 7 -10 19 -10 28 0 8
-4 15 -8 15 -4 0 -16 14 -25 30 -14 22 -26 30 -47 30 -42 0 -62 -33 -85 -145
-19 -90 -12 -284 12 -345 7 -18 7 -15 21 -65 13 -45 75 -154 97 -171 8 -6 15
-15 15 -20 0 -22 114 -113 201 -162 97 -55 193 -73 474 -88 126 -8 604 -7 670
1 33 3 80 8 105 11 25 2 70 9 100 16 30 6 57 12 60 12 28 5 163 79 219 121 69
52 159 167 193 250 17 39 45 144 47 175 5 78 6 147 2 154 -2 5 -6 26 -7 47 -5
59 -74 228 -119 288 -68 91 -233 221 -280 221 -8 0 -15 5 -15 10 0 6 -8 10
-18 10 -10 0 -22 3 -26 8 -4 4 -11 7 -14 8 -4 0 -27 4 -52 9 -25 4 -200 9
-390 10 -355 2 -383 4 -450 31 -52 21 -80 75 -76 148 5 85 31 117 116 142 14
4 207 8 430 9 304 0 411 4 428 13 32 18 27 61 -19 155 -21 42 -35 77 -31 77 4
0 2 4 -3 8 -6 4 -16 18 -23 32 -73 145 -104 187 -145 196 -57 14 -759 10 -829
-4z"/>
</g>
</svg>
