<svg width="44" height="44" viewBox="0 0 44 44" fill="none" xmlns="http://www.w3.org/2000/svg">
<g clip-path="url(#clip0_40_15)">
<path d="M0.582453 35.5747H26.5969C26.7476 40.2268 30.5912 43.9998 35.2949 43.9998C40.0938 43.9998 44.0168 40.0989 44.0168 35.3C44.0168 30.6241 40.2602 26.8011 35.6993 26.608V0.507715C35.6993 0.205604 35.4164 0 35.1143 0H0.582453C0.280341 0 0.0333252 0.205604 0.0333252 0.507715V35.0396C0.0337093 35.1109 0.0482812 35.1815 0.0761931 35.2472C0.104105 35.3128 0.144799 35.3723 0.195908 35.4221C0.247017 35.4719 0.307521 35.511 0.373897 35.5372C0.440274 35.5634 0.511107 35.5762 0.582453 35.5747ZM1.12793 18.3347H17.2734V34.4801H1.12793V18.3347ZM34.6047 26.6304C33.0949 26.7487 31.6409 27.253 30.3821 28.0949H22.2039C21.9014 28.0949 21.6566 28.3401 21.6566 28.6422C21.6566 28.9443 21.9014 29.1895 22.2039 29.1895H29.0798C27.7193 30.649 26.8196 32.4733 26.6301 34.4801H18.3682V18.3347H34.6048L34.6047 26.6304ZM42.9033 35.3029C42.9033 39.5049 39.4969 42.9117 35.2949 42.9117C31.0929 42.9117 27.6865 39.5049 27.6865 35.3029C27.6865 31.1008 31.0929 27.6945 35.2949 27.6945C39.4952 27.699 42.8988 31.103 42.9033 35.3029ZM34.6047 17.2401H18.3681V1.09461H34.6047V17.2401ZM17.2735 1.09461V17.2401H1.12802V1.09461H17.2735Z" fill="#122E74"/>
<path d="M12.9446 25.2672H9.42877V22.2192C9.42877 21.9168 9.18358 21.6719 8.88147 21.6719C8.5789 21.6719 8.33417 21.9168 8.33417 22.2192V25.2672H4.76593C4.46382 25.2672 4.21863 25.5124 4.21863 25.8145C4.21863 26.1166 4.46382 26.3618 4.76593 26.3618H8.33417V29.9435C8.33417 30.2456 8.5789 30.4908 8.88147 30.4908C9.18358 30.4908 9.42877 30.2456 9.42877 29.9435V26.3618H12.9446C13.2467 26.3618 13.4919 26.1166 13.4919 25.8145C13.4919 25.5124 13.2467 25.2672 12.9446 25.2672ZM5.12624 10.2163H13.3048C13.6069 10.2163 13.8521 9.97114 13.8521 9.66902C13.8521 9.36691 13.6069 9.12172 13.3048 9.12172H5.12624C4.82404 9.12172 4.57894 9.36691 4.57894 9.66902C4.57894 9.97114 4.82404 10.2163 5.12624 10.2163ZM22.2037 25.0847H30.3823C30.6845 25.0847 30.9296 24.8395 30.9296 24.5374C30.9296 24.2353 30.6845 23.9901 30.3823 23.9901H22.2037C21.9013 23.9901 21.6564 24.2353 21.6564 24.5374C21.6564 24.8395 21.9013 25.0847 22.2037 25.0847ZM25.3404 9.50757L22.7742 12.0742C22.6729 12.177 22.6163 12.3158 22.6169 12.4602C22.6175 12.6046 22.6752 12.7429 22.7774 12.8449C22.8795 12.947 23.0178 13.0046 23.1621 13.0052C23.3065 13.0058 23.4452 12.9493 23.5482 12.8481L26.1147 10.2815L28.6809 12.8481C28.7839 12.9493 28.9226 13.0057 29.067 13.0051C29.2113 13.0045 29.3496 12.9469 29.4517 12.8448C29.5539 12.7428 29.6116 12.6045 29.6122 12.4602C29.6128 12.3158 29.5562 12.177 29.4549 12.0742L26.8887 9.50757L29.4549 6.94181C29.5238 6.87405 29.5735 6.78927 29.599 6.69608C29.6245 6.60289 29.6249 6.5046 29.6002 6.4112C29.5754 6.31789 29.5263 6.2328 29.458 6.16455C29.3897 6.0963 29.3046 6.04732 29.2113 6.02258C29.1179 5.99783 29.0197 5.9982 28.9266 6.02365C28.8334 6.04909 28.7487 6.09871 28.6809 6.16747L26.1148 8.73405L23.5483 6.1672C23.4805 6.09841 23.3958 6.04876 23.3026 6.02329C23.2095 5.99783 23.1113 5.99744 23.0179 6.02218C22.9246 6.04692 22.8394 6.0959 22.7711 6.16415C22.7028 6.23241 22.6538 6.31751 22.629 6.41084C22.6043 6.50424 22.6047 6.60252 22.6302 6.69572C22.6557 6.78891 22.7054 6.87369 22.7743 6.94145L25.3404 9.50757ZM34.6959 29.9192V30.6344C33.4003 30.9372 32.538 32.1636 32.6913 33.4849C32.8445 34.8065 33.9648 35.8031 35.2949 35.8013C36.1365 35.8017 36.8188 36.4836 36.8188 37.3253C36.8188 38.1669 36.1365 38.8492 35.2949 38.8492C34.4532 38.8492 33.7709 38.1669 33.7709 37.3253C33.7709 37.0232 33.5257 36.778 33.2236 36.778C32.9215 36.778 32.6763 37.0232 32.6763 37.3253C32.6771 37.8992 32.8662 38.4571 33.2145 38.9133C33.5628 39.3695 34.0512 39.6989 34.6046 39.8509V40.6829C34.6046 40.9851 34.8495 41.2302 35.1519 41.2302C35.4541 41.2302 35.6992 40.985 35.6992 40.6829V39.9126C37.0502 39.7012 38.0111 38.4859 37.9052 37.1226C37.7994 35.7592 36.6624 34.7072 35.2949 34.7067C34.4532 34.7071 33.7709 34.0248 33.7709 33.1831C33.7709 32.3412 34.4532 31.6589 35.2949 31.6589C36.1365 31.6589 36.8188 32.3412 36.8188 33.1831C36.8188 33.4853 37.064 33.7304 37.3661 33.7304C37.6683 33.7304 37.9135 33.4853 37.9135 33.1831C37.9116 31.9289 37.0216 30.8514 35.7906 30.6126V29.9192C35.7906 29.617 35.5454 29.3719 35.2432 29.3719C34.9407 29.3719 34.6959 29.6171 34.6959 29.9192Z" fill="#122E74"/>
</g>
<defs>
<clipPath id="clip0_40_15">
<rect width="44" height="44" fill="white"/>
</clipPath>
</defs>
</svg>
