<svg width="44" height="44" viewBox="0 0 44 44" fill="none" xmlns="http://www.w3.org/2000/svg">
<path d="M17.6635 18.9774C18.9765 18.9775 20.2601 18.5881 21.3519 17.8586C22.4437 17.1291 23.2947 16.0922 23.7972 14.8791C24.2997 13.666 24.4312 12.3311 24.175 11.0432C23.9188 9.75538 23.2865 8.57242 22.358 7.64393C21.4296 6.71544 20.2466 6.08313 18.9587 5.82697C17.6709 5.5708 16.336 5.70228 15.1229 6.20479C13.9097 6.70729 12.8729 7.55824 12.1434 8.65003C11.4139 9.74183 11.0245 11.0254 11.0245 12.3385C11.0265 14.0987 11.7266 15.7861 12.9712 17.0308C14.2158 18.2754 15.9033 18.9755 17.6635 18.9774ZM17.6635 6.73074C18.7726 6.73072 19.8568 7.0596 20.779 7.67578C21.7012 8.29196 22.42 9.16776 22.8444 10.1924C23.2689 11.2171 23.3799 12.3447 23.1636 13.4325C22.9472 14.5203 22.4131 15.5195 21.6289 16.3038C20.8446 17.088 19.8454 17.6221 18.7576 17.8385C17.6698 18.0549 16.5423 17.9439 15.5176 17.5194C14.4929 17.095 13.6171 16.3762 13.0009 15.454C12.3847 14.5318 12.0558 13.4476 12.0558 12.3385C12.0574 10.8518 12.6488 9.42638 13.7001 8.37508C14.7513 7.32378 16.1767 6.73242 17.6635 6.73074Z" fill="#122E74"/>
<path d="M17.6635 15.1971C17.3798 15.1968 17.1078 15.0839 16.9071 14.8833C16.7065 14.6827 16.5936 14.4106 16.5933 14.1269C16.5933 13.9902 16.539 13.859 16.4423 13.7623C16.3456 13.6656 16.2144 13.6113 16.0777 13.6113C15.9409 13.6113 15.8098 13.6656 15.7131 13.7623C15.6164 13.859 15.5621 13.9902 15.5621 14.1269C15.5627 14.6013 15.7236 15.0616 16.0186 15.433C16.3137 15.8045 16.7255 16.0654 17.1875 16.1734V16.6719C17.1875 16.8086 17.2418 16.9398 17.3385 17.0365C17.4352 17.1332 17.5663 17.1875 17.7031 17.1875C17.8399 17.1875 17.971 17.1332 18.0677 17.0365C18.1644 16.9398 18.2187 16.8086 18.2187 16.6719V16.1533C18.7095 16.019 19.1348 15.7111 19.4157 15.2869C19.6966 14.8626 19.8141 14.3509 19.7462 13.8466C19.6784 13.3424 19.4299 12.8799 19.0469 12.5449C18.6638 12.21 18.1723 12.0255 17.6635 12.0256C17.4518 12.0256 17.2449 11.9628 17.0689 11.8452C16.8929 11.7276 16.7558 11.5605 16.6748 11.3649C16.5938 11.1694 16.5726 10.9542 16.6139 10.7466C16.6552 10.539 16.7571 10.3483 16.9068 10.1987C17.0564 10.049 17.2471 9.94708 17.4547 9.90578C17.6623 9.86449 17.8775 9.88568 18.073 9.96668C18.2686 10.0477 18.4357 10.1848 18.5533 10.3608C18.6709 10.5368 18.7337 10.7437 18.7337 10.9554C18.7337 11.0922 18.788 11.2233 18.8847 11.32C18.9814 11.4167 19.1125 11.471 19.2493 11.471C19.386 11.471 19.5172 11.4167 19.6139 11.32C19.7106 11.2233 19.7649 11.0922 19.7649 10.9554C19.7642 10.4648 19.5921 9.98986 19.2784 9.61266C18.9647 9.23547 18.5291 8.97972 18.0468 8.88963V8.50781C18.0468 8.37106 17.9925 8.23991 17.8958 8.14321C17.7991 8.04651 17.668 7.99219 17.5312 7.99219C17.3945 7.99219 17.2633 8.04651 17.1666 8.14321C17.0699 8.23991 17.0156 8.37106 17.0156 8.50781V8.95658C16.5395 9.11082 16.134 9.42995 15.8722 9.85654C15.6104 10.2831 15.5095 10.7891 15.5876 11.2835C15.6658 11.7779 15.9178 12.2281 16.2983 12.5532C16.6789 12.8783 17.163 13.0569 17.6635 13.0568C17.8048 13.0556 17.945 13.0823 18.076 13.1355C18.2069 13.1887 18.326 13.2674 18.4264 13.3669C18.5268 13.4663 18.6065 13.5847 18.6609 13.7152C18.7153 13.8457 18.7433 13.9856 18.7433 14.127C18.7433 14.2683 18.7153 14.4083 18.6609 14.5387C18.6065 14.6692 18.5268 14.7876 18.4264 14.8871C18.326 14.9866 18.2069 15.0652 18.076 15.1184C17.945 15.1716 17.8048 15.1984 17.6635 15.1971ZM7.56067 23.2031H27.9279C28.0646 23.2031 28.1958 23.1488 28.2925 23.0521C28.3892 22.9554 28.4435 22.8243 28.4435 22.6875C28.4435 22.5507 28.3892 22.4196 28.2925 22.3229C28.1958 22.2262 28.0646 22.1719 27.9279 22.1719H7.56067C7.42392 22.1719 7.29277 22.2262 7.19607 22.3229C7.09937 22.4196 7.04504 22.5507 7.04504 22.6875C7.04504 22.8243 7.09937 22.9554 7.19607 23.0521C7.29277 23.1488 7.42392 23.2031 7.56067 23.2031Z" fill="#122E74"/>
<path d="M31.8828 25.3614V9.88281H38.9383C39.0754 9.87952 39.2057 9.8221 39.3007 9.72308C39.3957 9.62406 39.4477 9.49149 39.4453 9.3543V5.01918C39.4453 2.65263 37.5236 0.6875 35.1587 0.6875H7.90993C5.63748 0.6875 3.78802 2.53773 3.78802 4.78285L3.60755 38.1025C3.60677 38.2414 3.66067 38.3749 3.7576 38.4743C3.80536 38.5228 3.86223 38.5615 3.92494 38.588C3.98766 38.6146 4.05499 38.6285 4.12309 38.629C4.12309 38.629 15.5356 38.6317 23.5872 38.6318C24.3405 39.9993 25.438 41.1463 26.7711 41.9589C28.1042 42.7716 29.6266 43.2218 31.1872 43.2649C32.7479 43.3079 34.2927 42.9424 35.6686 42.2045C37.0445 41.4667 38.2037 40.382 39.0313 39.0582C39.8589 37.7343 40.3262 36.2171 40.3868 34.657C40.4474 33.0969 40.0992 31.5481 39.3769 30.164C38.6545 28.7799 37.5829 27.6086 36.2684 26.7662C34.9539 25.9238 33.4421 25.4395 31.8828 25.3614ZM35.1521 1.71875H35.1579C36.9555 1.71875 38.414 3.22266 38.414 5.02004V8.85156H31.8828V5.03164C31.8828 3.23125 33.3397 1.80469 35.139 1.71875H35.1521ZM4.64164 37.6005L4.81927 4.78569C4.82537 3.97006 5.15371 3.18993 5.73267 2.61541C6.31164 2.04088 7.09428 1.71857 7.90993 1.71875H32.3574C31.4336 2.57812 30.8515 3.72487 30.8515 5.0325V25.3696C30.0138 25.4293 29.1888 25.6076 28.4011 25.899C28.3596 25.8093 28.2925 25.7339 28.2082 25.6824C28.1239 25.6308 28.0262 25.6054 27.9274 25.6094H7.56068C7.42393 25.6094 7.29277 25.6637 7.19608 25.7604C7.09938 25.8571 7.04505 25.9882 7.04505 26.125C7.04505 26.2617 7.09938 26.3929 7.19608 26.4896C7.29277 26.5863 7.42393 26.6406 7.56068 26.6406H26.8726C25.8181 27.2337 24.9101 28.056 24.2158 29.0469H7.56068C7.42393 29.0469 7.29277 29.1012 7.19608 29.1979C7.09938 29.2946 7.04505 29.4257 7.04505 29.5625C7.04505 29.6992 7.09938 29.8304 7.19608 29.9271C7.29277 30.0238 7.42393 30.0781 7.56068 30.0781H23.5585C23.1528 30.7656 22.8502 31.625 22.6688 32.4844H7.56068C7.49296 32.4844 7.42592 32.4977 7.36336 32.5236C7.3008 32.5495 7.24396 32.5875 7.19608 32.6354C7.1482 32.6833 7.11021 32.7401 7.0843 32.8027C7.05839 32.8652 7.04505 32.9323 7.04505 33C7.04505 33.0677 7.05839 33.1348 7.0843 33.1973C7.11021 33.2599 7.1482 33.3167 7.19608 33.3646C7.24396 33.4125 7.3008 33.4505 7.36336 33.4764C7.42592 33.5023 7.49296 33.5156 7.56068 33.5156H22.512C22.4862 33.7734 22.4728 34.0484 22.4728 34.3301C22.4716 35.4539 22.6843 36.5677 23.0994 37.612C16.1182 37.6118 6.9048 37.6007 4.64164 37.6005ZM31.4326 42.2383C29.9879 42.239 28.5706 41.8449 27.3337 41.0984C26.0969 40.3519 25.0877 39.2815 24.4151 38.003C23.7426 36.7244 23.4324 35.2864 23.518 33.8443C23.6036 32.4022 24.0818 31.0109 24.9009 29.8209C24.9049 29.8152 24.909 29.8096 24.9128 29.8037C25.6886 28.6814 26.7408 27.7783 27.9678 27.1818C29.1948 26.5852 30.5549 26.3155 31.9167 26.3986C33.2785 26.4816 34.5957 26.9148 35.7411 27.656C36.8864 28.3973 37.8211 29.4217 38.4546 30.6299C39.0882 31.8382 39.3991 33.1896 39.3575 34.5532C39.3158 35.9169 38.9229 37.2467 38.2167 38.4141C37.5106 39.5814 36.5151 40.5467 35.3266 41.2167C34.1381 41.8866 32.7969 42.2385 31.4326 42.2383Z" fill="#122E74"/>
<path d="M34.0101 32.0599L30.6056 35.4643L28.857 33.6985C28.7605 33.6023 28.63 33.5482 28.4938 33.548C28.3576 33.5478 28.2269 33.6014 28.1301 33.6972C28.0334 33.793 27.9784 33.9232 27.9773 34.0594C27.9762 34.1956 28.029 34.3267 28.1242 34.424L30.2375 36.5503C30.2856 36.5975 30.3427 36.6347 30.4053 36.6596C30.468 36.6844 30.535 36.6966 30.6024 36.6953H30.6036C30.6709 36.6967 30.7377 36.6848 30.8003 36.6602C30.8628 36.6356 30.9199 36.5989 30.9682 36.5521L34.7393 32.7851C34.7874 32.7373 34.8255 32.6805 34.8515 32.618C34.8775 32.5554 34.8909 32.4883 34.8909 32.4205C34.8909 32.3528 34.8775 32.2857 34.8515 32.2231C34.8255 32.1605 34.7874 32.1037 34.7393 32.0559C34.6913 32.0081 34.6343 31.9703 34.5716 31.9446C34.5089 31.9189 34.4417 31.9059 34.3739 31.9063C34.3062 31.9066 34.2391 31.9204 34.1767 31.9467C34.1143 31.9731 34.0577 32.0115 34.0101 32.0598V32.0599Z" fill="#122E74"/>
</svg>
