<svg width="48" height="44" viewBox="0 0 48 44" fill="none" xmlns="http://www.w3.org/2000/svg">
<path d="M45.5974 18.6768C45.5817 18.671 45.5609 18.6654 45.5449 18.6606L41.5808 17.505L38.9378 11.5029C38.6494 10.8538 38.1949 10.3031 37.6258 9.91321C37.0567 9.52329 36.3957 9.3097 35.7177 9.29665L18.0383 9H17.9854C17.4038 8.99964 16.8307 9.14813 16.3151 9.43279C15.7994 9.71745 15.3566 10.1298 15.0244 10.6347L10.5218 17.4646L4.38643 18.7875C1.84128 19.3432 0.011904 21.7071 0 24.4554V30.128C0 30.5203 0.320256 30.8046 0.6912 30.8046H4.0368C4.52544 33.3427 6.59136 35.1139 9.05885 35.1139C11.5263 35.1139 13.5923 33.3427 14.0809 30.8046H34.3477C34.8225 33.3348 36.9307 35.1507 39.3698 35.1309C41.7964 35.1317 43.8933 33.3387 44.4015 30.8297C46.3863 30.8197 47.9925 29.1196 48 27.0209V22.2711C47.9969 21.4836 47.7646 20.7162 47.3348 20.0732C46.9049 19.4302 46.2984 18.9426 45.5974 18.6768ZM37.7182 12.1028L40.0466 17.392H31.392V10.6457L35.6966 10.718C36.1223 10.7259 36.5374 10.8599 36.8947 11.1046C37.252 11.3494 37.5373 11.6952 37.7182 12.1028ZM22.752 17.4034V10.5006L30.048 10.6232V17.4034H22.752ZM16.1268 11.4469C16.3387 11.1254 16.6219 10.8638 16.9516 10.685C17.2814 10.5062 17.6475 10.4157 18.018 10.4213L21.408 10.4781V17.3928H12.207L16.1268 11.4469ZM9.05885 33.7266C6.96672 33.7266 5.27069 31.9329 5.27069 29.7204C5.27069 27.5075 6.96634 25.7142 9.05885 25.7142C11.151 25.7138 12.8471 27.5075 12.8471 29.7203C12.8449 31.9317 11.1501 33.7242 9.05885 33.7266ZM39.3698 33.7266C37.2777 33.7266 35.5815 31.9329 35.5815 29.7204C35.5815 27.5075 37.2777 25.7142 39.3697 25.7142C41.4619 25.7138 43.158 27.5075 43.158 29.7203C43.1557 31.9317 41.4607 33.7242 39.3698 33.7266ZM46.656 27.0209C46.6503 28.295 45.7066 29.3445 44.5027 29.4138C44.3554 26.5378 42.1114 24.2837 39.3881 24.2754C36.6649 24.2675 34.4089 26.5085 34.2461 29.3832H14.1825C14.031 26.5081 11.7821 24.2587 9.05894 24.2587C6.33562 24.2587 4.08672 26.5081 3.93523 29.3832H1.344V24.4554C1.35379 22.3818 2.73446 20.5983 4.65485 20.1792L10.9822 18.8141H41.007L45.1654 20.0241C45.6004 20.194 45.976 20.5001 46.2423 20.9015C46.5087 21.303 46.6529 21.7807 46.656 22.2711V27.0209Z" fill="#122E74"/>
</svg>
