<svg width="48" height="26" viewBox="0 0 48 26" fill="none" xmlns="http://www.w3.org/2000/svg">
<g clip-path="url(#clip0_40_25)">
<path d="M45.5974 9.67684C45.5817 9.67096 45.5609 9.66537 45.5449 9.6606L41.5808 8.50496L38.9378 2.50287C38.6494 1.85381 38.1949 1.30313 37.6258 0.913212C37.0567 0.523289 36.3957 0.309705 35.7177 0.296653L18.0383 6.63735e-07H17.9854C17.4038 -0.000362277 16.8307 0.148126 16.3151 0.432789C15.7994 0.717453 15.3566 1.12984 15.0244 1.63474L10.5218 8.46455L4.38643 9.78751C1.84128 10.3432 0.011904 12.7071 0 15.4554V21.128C0 21.5203 0.320256 21.8046 0.6912 21.8046H4.0368C4.52544 24.3427 6.59136 26.1139 9.05885 26.1139C11.5263 26.1139 13.5923 24.3427 14.0809 21.8046H34.3477C34.8225 24.3348 36.9307 26.1507 39.3698 26.1309C41.7964 26.1317 43.8933 24.3387 44.4015 21.8297C46.3863 21.8197 47.9925 20.1196 48 18.0209V13.2711C47.9969 12.4836 47.7646 11.7162 47.3348 11.0732C46.9049 10.4302 46.2984 9.94263 45.5974 9.67684ZM37.7182 3.10277L40.0466 8.39196H31.392V1.6457L35.6966 1.71799C36.1223 1.72591 36.5374 1.85985 36.8947 2.10462C37.252 2.3494 37.5373 2.69519 37.7182 3.10277ZM22.752 8.40343V1.50062L30.048 1.62316V8.40343H22.752ZM16.1268 2.44693C16.3387 2.12543 16.6219 1.86381 16.9516 1.68501C17.2814 1.5062 17.6475 1.41566 18.018 1.42133L21.408 1.47809V8.39277H12.207L16.1268 2.44693ZM9.05885 24.7266C6.96672 24.7266 5.27069 22.9329 5.27069 20.7204C5.27069 18.5075 6.96634 16.7142 9.05885 16.7142C11.151 16.7138 12.8471 18.5075 12.8471 20.7203C12.8449 22.9317 11.1501 24.7242 9.05885 24.7266ZM39.3698 24.7266C37.2777 24.7266 35.5815 22.9329 35.5815 20.7204C35.5815 18.5075 37.2777 16.7142 39.3697 16.7142C41.4619 16.7138 43.158 18.5075 43.158 20.7203C43.1557 22.9317 41.4607 24.7242 39.3698 24.7266ZM46.656 18.0209C46.6503 19.295 45.7066 20.3445 44.5027 20.4138C44.3554 17.5378 42.1114 15.2837 39.3881 15.2754C36.6649 15.2675 34.4089 17.5085 34.2461 20.3832H14.1825C14.031 17.5081 11.7821 15.2587 9.05894 15.2587C6.33562 15.2587 4.08672 17.5081 3.93523 20.3832H1.344V15.4554C1.35379 13.3818 2.73446 11.5983 4.65485 11.1792L10.9822 9.81411H41.007L45.1654 11.0241C45.6004 11.194 45.976 11.5001 46.2423 11.9015C46.5087 12.303 46.6529 12.7807 46.656 13.2711V18.0209Z" fill="#122E74"/>
</g>
<defs>
<clipPath id="clip0_40_25">
<rect width="48" height="26" fill="white"/>
</clipPath>
</defs>
</svg>
