<svg width="37" height="42" viewBox="0 0 37 42" fill="none" xmlns="http://www.w3.org/2000/svg">
<g clip-path="url(#clip0_40_19)">
<path d="M19.051 22.9218C18.9734 22.9048 18.8934 22.9021 18.8148 22.9137C18.026 22.8219 17.431 22.1545 17.4296 21.3606C17.4296 21.1779 17.357 21.0027 17.2278 20.8735C17.0986 20.7443 16.9234 20.6717 16.7407 20.6717C16.5579 20.6717 16.3827 20.7443 16.2535 20.8735C16.1243 21.0027 16.0517 21.1779 16.0517 21.3606C16.0538 22.6863 16.9405 23.8475 18.2187 24.1984V24.8873C18.2187 25.07 18.2913 25.2452 18.4205 25.3744C18.5497 25.5036 18.725 25.5762 18.9077 25.5762C19.0904 25.5762 19.2656 25.5036 19.3948 25.3744C19.524 25.2452 19.5966 25.07 19.5966 24.8873V24.24C21.072 23.9312 22.0747 22.5571 21.9197 21.0578C21.7643 19.5586 20.5011 18.4193 18.9938 18.4189C18.13 18.4189 17.4296 17.7185 17.4296 16.8547C17.4296 15.9909 18.13 15.2905 18.9938 15.2905C19.8576 15.2905 20.558 15.9908 20.558 16.8547C20.558 17.0374 20.6306 17.2127 20.7598 17.3419C20.889 17.4711 21.0642 17.5436 21.2469 17.5436C21.4296 17.5436 21.6048 17.4711 21.734 17.3419C21.8632 17.2127 21.9358 17.0374 21.9358 16.8547C21.9338 15.4628 20.9587 14.2621 19.5966 13.9749V13.3479C19.5966 13.1651 19.524 12.9899 19.3948 12.8607C19.2656 12.7315 19.0904 12.6589 18.9077 12.6589C18.725 12.6589 18.5497 12.7315 18.4205 12.8607C18.2913 12.9899 18.2187 13.1651 18.2187 13.3479V14.017C16.7972 14.4051 15.8822 15.7853 16.0779 17.2459C16.2737 18.7065 17.5201 19.7967 18.9938 19.7964C19.8462 19.7964 20.5415 20.479 20.5569 21.331C20.5728 22.1831 19.9027 22.8908 19.051 22.9218Z" fill="#122E74"/>
<path d="M9.00372 19.1606C9.00372 24.678 13.4764 29.1507 18.9938 29.1507C24.5112 29.1507 28.9838 24.678 28.9838 19.1606C28.9838 13.6432 24.5112 9.17059 18.9938 9.17059C13.479 9.17662 9.01018 13.6459 9.00372 19.1606ZM18.9938 10.5484C23.7503 10.5484 27.606 14.4042 27.606 19.1606C27.606 23.9171 23.7503 27.7728 18.9938 27.7728C14.2373 27.7728 10.3816 23.9171 10.3816 19.1606C10.387 14.4065 14.2396 10.5539 18.9938 10.5484Z" fill="#122E74"/>
<path d="M32.3799 30.849L26.9833 33.3989C26.6172 32.718 26.078 32.1456 25.4201 31.7397C24.7621 31.3337 24.0088 31.1084 23.236 31.0865L18.254 30.9496C17.465 30.927 16.6912 30.7272 15.9898 30.365L15.4829 30.1023C14.2041 29.4358 12.7829 29.0884 11.3408 29.0899C9.89861 29.0915 8.47821 29.4418 7.20074 30.111L7.23234 28.9626C7.23485 28.8721 7.21952 28.7821 7.18722 28.6976C7.15492 28.613 7.10629 28.5357 7.04409 28.47C6.9819 28.4042 6.90737 28.3514 6.82476 28.3145C6.74215 28.2776 6.65307 28.2573 6.56262 28.2548L1.09965 28.1045C1.00921 28.102 0.919166 28.1174 0.83466 28.1497C0.750155 28.182 0.672845 28.2307 0.607148 28.2929C0.541451 28.3551 0.488654 28.4296 0.451774 28.5122C0.414894 28.5948 0.394655 28.6839 0.392212 28.7743L0.0622184 40.7624C0.0596958 40.8528 0.0750221 40.9429 0.107322 41.0274C0.139621 41.112 0.188262 41.1893 0.250463 41.2551C0.312665 41.3208 0.387209 41.3736 0.469836 41.4105C0.552464 41.4475 0.641556 41.4677 0.732022 41.4702L6.19491 41.6206H6.21377C6.39328 41.6206 6.56572 41.5506 6.69439 41.4255C6.82306 41.3003 6.8978 41.1299 6.90269 40.9504L6.91845 40.3769L8.33763 39.617C8.89446 39.3173 9.54609 39.2459 10.1546 39.4182L18.6295 41.7968C18.6443 41.8012 18.659 41.8045 18.6743 41.808C19.2868 41.936 19.911 42.0004 20.5368 42C21.8622 42.0008 23.1721 41.715 24.3767 41.1621C24.4063 41.1486 24.4349 41.1328 24.4621 41.1149L36.75 33.1668C36.8975 33.0714 37.003 32.9233 37.0449 32.7527C37.0868 32.5821 37.0621 32.402 36.9757 32.2491C36.0634 30.6304 34.04 30.0138 32.3799 30.849ZM1.45858 40.1118L1.75051 29.5008L5.83598 29.6132L5.54405 40.2246L1.45858 40.1118ZM23.756 39.9315C22.2594 40.6069 20.588 40.7935 18.9793 40.4647L10.5273 38.0922C9.57624 37.8234 8.55795 37.9347 7.68746 38.4026L6.9622 38.7912L7.1563 31.7361C8.28462 30.9856 9.59364 30.5517 10.9468 30.4795C12.3 30.4073 13.6477 30.6996 14.8495 31.3258L15.3564 31.5884C16.2423 32.0458 17.2197 32.2983 18.2163 32.3272L23.1986 32.4641C24.598 32.5044 25.7865 33.5008 26.0704 34.8719L18.6493 34.667C18.2689 34.6567 17.9523 34.9567 17.9415 35.3368C17.9365 35.5195 18.0043 35.6967 18.1299 35.8294C18.2555 35.9621 18.4287 36.0396 18.6113 36.0446L26.801 36.27H26.8202C26.9996 36.2699 27.1718 36.1998 27.3004 36.0746C27.4289 35.9495 27.5035 35.7792 27.5084 35.5998C27.5169 35.3004 27.4946 35.001 27.4418 34.7061L32.9771 32.0906C32.9825 32.0883 32.9878 32.0856 32.9933 32.0829C33.3766 31.8889 33.8102 31.8169 34.2356 31.8765C34.6611 31.9361 35.0582 32.1245 35.3735 32.4163L23.756 39.9315ZM19.6827 7.23367V0.688921C19.6827 0.506208 19.6101 0.330978 19.4809 0.20178C19.3517 0.0725826 19.1765 0 18.9938 0C18.8111 0 18.6358 0.0725826 18.5066 0.20178C18.3774 0.330978 18.3049 0.506208 18.3049 0.688921V7.23367C18.3049 7.41639 18.3774 7.59162 18.5066 7.72081C18.6358 7.85001 18.8111 7.92259 18.9938 7.92259C19.1765 7.92259 19.3517 7.85001 19.4809 7.72081C19.6101 7.59162 19.6827 7.41639 19.6827 7.23367ZM24.8496 7.23367V4.13353C24.8496 3.95081 24.777 3.77558 24.6478 3.64639C24.5186 3.51719 24.3434 3.44461 24.1607 3.44461C23.978 3.44461 23.8027 3.51719 23.6735 3.64639C23.5443 3.77558 23.4718 3.95081 23.4718 4.13353V7.23367C23.4718 7.41639 23.5443 7.59162 23.6735 7.72081C23.8027 7.85001 23.978 7.92259 24.1607 7.92259C24.3434 7.92259 24.5186 7.85001 24.6478 7.72081C24.777 7.59162 24.8496 7.41639 24.8496 7.23367ZM14.5158 7.23367V4.13353C14.5158 3.95081 14.4432 3.77558 14.314 3.64639C14.1848 3.51719 14.0096 3.44461 13.8269 3.44461C13.6442 3.44461 13.4689 3.51719 13.3397 3.64639C13.2105 3.77558 13.1379 3.95081 13.1379 4.13353V7.23367C13.1379 7.41639 13.2105 7.59162 13.3397 7.72081C13.4689 7.85001 13.6442 7.92259 13.8269 7.92259C14.0096 7.92259 14.1848 7.85001 14.314 7.72081C14.4432 7.59162 14.5158 7.41639 14.5158 7.23367Z" fill="#122E74"/>
</g>
<defs>
<clipPath id="clip0_40_19">
<rect width="37" height="42" fill="white"/>
</clipPath>
</defs>
</svg>
