<svg width="36" height="36" viewBox="0 0 36 36" fill="none" xmlns="http://www.w3.org/2000/svg">
<g id="Communication / Paper_Plane">
<path id="Vector" d="M15.4616 20.5385L22.7309 13.2693M30.1669 8.83301L24.031 28.7749C23.4811 30.562 23.2059 31.456 22.7317 31.7524C22.3203 32.0094 21.811 32.0524 21.3629 31.8665C20.8463 31.6521 20.427 30.815 19.5905 29.142L15.7041 21.3691C15.5713 21.1037 15.5049 20.9715 15.4162 20.8564C15.3376 20.7544 15.2468 20.6624 15.1447 20.5837C15.0323 20.4971 14.9023 20.4321 14.6487 20.3053L6.85789 16.4099C5.18493 15.5734 4.34837 15.1548 4.13401 14.6382C3.9481 14.1901 3.9905 13.6803 4.24753 13.269C4.54391 12.7946 5.43785 12.519 7.22556 11.969L27.1674 5.83301C28.5729 5.40057 29.2759 5.18452 29.7506 5.3588C30.1641 5.5106 30.4901 5.83626 30.6419 6.24976C30.8161 6.72425 30.5999 7.4269 30.1679 8.83093L30.1669 8.83301Z" stroke="#122E74" stroke-linecap="round" stroke-linejoin="round"/>
</g>
</svg>
