<svg width="36" height="36" viewBox="0 0 36 36" fill="none" xmlns="http://www.w3.org/2000/svg">
<g id="Communication / Phone">
<path id="Vector" d="M14.2537 6.38583C13.7981 5.24685 12.695 4.5 11.4683 4.5H7.34211C5.77245 4.5 4.5 5.77215 4.5 7.3418C4.5 20.6838 15.3162 31.5 28.6582 31.5C30.2279 31.5 31.5 30.2274 31.5 28.6578L31.5007 24.5309C31.5007 23.3042 30.754 22.2013 29.6151 21.7457L25.6604 20.1644C24.6373 19.7552 23.4724 19.9393 22.6259 20.6448L21.6053 21.496C20.4133 22.4893 18.6594 22.4103 17.5623 21.3132L14.6883 18.4366C13.5912 17.3394 13.5101 15.587 14.5034 14.395L15.3545 13.3744C16.0599 12.5279 16.2457 11.3627 15.8365 10.3396L14.2537 6.38583Z" stroke="white" stroke-linecap="round" stroke-linejoin="round"/>
</g>
</svg>
