<svg width="46" height="52" viewBox="0 0 46 52" fill="none" xmlns="http://www.w3.org/2000/svg">
<g clip-path="url(#clip0_60_52)">
<path d="M23.4203 28.3792C23.3249 28.3582 23.2265 28.3548 23.13 28.3692C22.1603 28.2556 21.4287 27.4293 21.427 26.4464C21.427 26.2201 21.3378 26.0032 21.179 25.8432C21.0201 25.6833 20.8047 25.5934 20.5801 25.5934C20.3555 25.5934 20.1401 25.6833 19.9812 25.8432C19.8224 26.0032 19.7332 26.2201 19.7332 26.4464C19.7357 28.0876 20.8257 29.5254 22.3972 29.9598V30.8127C22.3972 31.0389 22.4864 31.2559 22.6452 31.4158C22.8041 31.5758 23.0195 31.6657 23.2441 31.6657C23.4687 31.6657 23.6841 31.5758 23.843 31.4158C24.0018 31.2559 24.091 31.0389 24.091 30.8127V30.0114C25.9048 29.629 27.1375 27.9277 26.947 26.0715C26.7559 24.2153 25.203 22.8047 23.35 22.8043C22.288 22.8043 21.427 21.9371 21.427 20.8676C21.427 19.7981 22.288 18.931 23.35 18.931C24.4119 18.931 25.2729 19.798 25.2729 20.8676C25.2729 21.0939 25.3621 21.3108 25.521 21.4708C25.6798 21.6307 25.8952 21.7206 26.1198 21.7206C26.3445 21.7206 26.5599 21.6307 26.7187 21.4708C26.8775 21.3108 26.9668 21.0939 26.9668 20.8676C26.9643 19.1443 25.7655 17.6578 24.091 17.3021V16.5258C24.091 16.2996 24.0018 16.0826 23.843 15.9227C23.6841 15.7627 23.4687 15.6729 23.2441 15.6729C23.0195 15.6729 22.8041 15.7627 22.6452 15.9227C22.4864 16.0826 22.3972 16.2996 22.3972 16.5258V17.3542C20.6496 17.8348 19.5247 19.5436 19.7654 21.352C20.006 23.1604 21.5383 24.5101 23.35 24.5097C24.3979 24.5097 25.2527 25.3548 25.2716 26.4097C25.2911 27.4647 24.4674 28.3409 23.4203 28.3792Z" fill="white"/>
<path d="M11.0687 23.7226C11.0687 30.5537 16.5672 36.0913 23.35 36.0913C30.1328 36.0913 35.6312 30.5537 35.6312 23.7226C35.6312 16.8916 30.1328 11.354 23.35 11.354C16.5705 11.3615 11.0767 16.8949 11.0687 23.7226ZM23.35 13.0599C29.1974 13.0599 33.9374 17.8337 33.9374 23.7226C33.9374 29.6116 29.1974 34.3854 23.35 34.3854C17.5026 34.3854 12.7626 29.6116 12.7626 23.7226C12.7692 17.8365 17.5055 13.0666 23.35 13.0599Z" fill="white"/>
<path d="M39.8063 38.194L33.1719 41.351C32.7218 40.508 32.059 39.7994 31.2501 39.2967C30.4413 38.7941 29.5152 38.5151 28.5651 38.4881L22.4406 38.3186C21.4706 38.2906 20.5193 38.0432 19.6571 37.5947L19.034 37.2695C17.4618 36.4443 15.7147 36.0142 13.9418 36.0161C12.1689 36.018 10.4227 36.4517 8.85223 37.2803L8.89108 35.8584C8.89417 35.7465 8.87532 35.635 8.83561 35.5303C8.79591 35.4257 8.73612 35.3299 8.65966 35.2485C8.58321 35.1672 8.49158 35.1018 8.39002 35.056C8.28847 35.0103 8.17896 34.9852 8.06776 34.9822L1.35186 34.7961C1.24068 34.793 1.12999 34.812 1.0261 34.852C0.922215 34.892 0.827174 34.9522 0.746409 35.0293C0.665645 35.1063 0.600739 35.1986 0.555401 35.3008C0.510063 35.4031 0.485181 35.5134 0.482178 35.6254L0.076501 50.4677C0.0733998 50.5797 0.0922412 50.6912 0.131949 50.7959C0.171656 50.9005 0.231452 50.9963 0.307919 51.0777C0.384387 51.1591 0.476027 51.2245 0.577605 51.2702C0.679184 51.3159 0.788709 51.341 0.899923 51.3441L7.61572 51.5302H7.6389C7.85958 51.5303 8.07157 51.4436 8.22975 51.2887C8.38794 51.1337 8.47981 50.9227 8.48583 50.7005L8.5052 49.9904L10.2499 49.0496C10.9344 48.6785 11.7355 48.5902 12.4835 48.8035L22.9022 51.7484C22.9204 51.7538 22.9385 51.758 22.9572 51.7622C23.7103 51.9208 24.4776 52.0005 25.2469 52C26.8763 52.001 28.4866 51.6471 29.9674 50.9626C30.0039 50.9458 30.039 50.9263 30.0725 50.9042L45.1786 41.0637C45.3599 40.9455 45.4896 40.7621 45.5411 40.551C45.5927 40.3398 45.5622 40.1168 45.456 39.9274C44.3346 37.9233 41.847 37.1599 39.8063 38.194ZM1.79311 49.6623L2.152 36.5248L7.17447 36.664L6.81559 49.8018L1.79311 49.6623ZM29.2045 49.439C27.3646 50.2752 25.3099 50.5062 23.3322 50.0992L12.9417 47.1617C11.7726 46.8289 10.5207 46.9667 9.45058 47.5461L8.55898 48.0272L8.7976 39.2923C10.1847 38.3632 11.7939 37.8259 13.4575 37.7365C15.121 37.6472 16.7778 38.009 18.2552 38.7843L18.8784 39.1095C19.9675 39.6758 21.1691 39.9884 22.3942 40.0242L28.5192 40.1937C30.2395 40.2436 31.7006 41.4771 32.0496 43.1747L22.9265 42.9211C22.4588 42.9083 22.0697 43.2798 22.0564 43.7504C22.0503 43.9765 22.1336 44.1959 22.288 44.3602C22.4424 44.5246 22.6553 44.6204 22.8798 44.6267L32.9478 44.9057H32.9714C33.1919 44.9055 33.4037 44.8188 33.5617 44.6638C33.7197 44.5089 33.8114 44.298 33.8174 44.076C33.8279 43.7053 33.8004 43.3345 33.7356 42.9695L40.5403 39.7313C40.547 39.7284 40.5536 39.7251 40.5602 39.7217C41.0315 39.4815 41.5645 39.3923 42.0876 39.4661C42.6106 39.5399 43.0988 39.7732 43.4864 40.1345L29.2045 49.439ZM24.1969 8.95598V0.85295C24.1969 0.626734 24.1077 0.409782 23.9489 0.249823C23.79 0.0898641 23.5746 0 23.35 0C23.1254 0 22.91 0.0898641 22.7511 0.249823C22.5923 0.409782 22.5031 0.626734 22.5031 0.85295V8.95598C22.5031 9.18219 22.5923 9.39914 22.7511 9.5591C22.91 9.71906 23.1254 9.80893 23.35 9.80893C23.5746 9.80893 23.79 9.71906 23.9489 9.5591C24.1077 9.39914 24.1969 9.18219 24.1969 8.95598ZM30.5488 8.95598V5.1177C30.5488 4.89148 30.4596 4.67453 30.3008 4.51457C30.142 4.35461 29.9265 4.26475 29.7019 4.26475C29.4773 4.26475 29.2619 4.35461 29.1031 4.51457C28.9442 4.67453 28.855 4.89148 28.855 5.1177V8.95598C28.855 9.18219 28.9442 9.39914 29.1031 9.5591C29.2619 9.71906 29.4773 9.80893 29.7019 9.80893C29.9265 9.80893 30.142 9.71906 30.3008 9.5591C30.4596 9.39914 30.5488 9.18219 30.5488 8.95598ZM17.845 8.95598V5.1177C17.845 4.89148 17.7557 4.67453 17.5969 4.51457C17.4381 4.35461 17.2227 4.26475 16.9981 4.26475C16.7734 4.26475 16.558 4.35461 16.3992 4.51457C16.2404 4.67453 16.1511 4.89148 16.1511 5.1177V8.95598C16.1511 9.18219 16.2404 9.39914 16.3992 9.5591C16.558 9.71906 16.7734 9.80893 16.9981 9.80893C17.2227 9.80893 17.4381 9.71906 17.5969 9.5591C17.7557 9.39914 17.845 9.18219 17.845 8.95598Z" fill="white"/>
</g>
<defs>
<clipPath id="clip0_60_52">
<rect width="46" height="52" fill="white"/>
</clipPath>
</defs>
</svg>
