<svg width="47" height="47" viewBox="0 0 47 47" fill="none" xmlns="http://www.w3.org/2000/svg">
<g clip-path="url(#clip0_60_81)">
<path d="M19.4461 2.73673C19.1516 2.44173 18.6738 2.44123 18.3793 2.73548L9.32824 11.7627L6.06264 8.2159C5.78046 7.90961 5.30338 7.88974 4.99658 8.17188C4.69 8.45405 4.67038 8.93137 4.95255 9.23794L8.75005 13.3621C8.81884 13.4369 8.90205 13.497 8.99467 13.5388C9.08728 13.5806 9.1874 13.6032 9.28898 13.6053C9.2945 13.6055 9.29981 13.6055 9.30509 13.6055C9.50475 13.6055 9.69625 13.5264 9.83773 13.3855L19.4446 3.80378C19.7399 3.50956 19.7404 3.03173 19.4461 2.73673Z" fill="white"/>
<path d="M19.264 9.25477C18.8473 9.25477 18.5096 9.59251 18.5096 10.0093C18.5096 14.6965 14.6965 18.5096 10.0093 18.5096C5.32227 18.5096 1.50893 14.6965 1.50893 10.0093C1.50893 5.32227 5.32227 1.50893 10.0093 1.50893C10.426 1.50893 10.7637 1.1712 10.7637 0.754487C10.7637 0.337734 10.426 0 10.0093 0C4.49009 0 0 4.49009 0 10.0093C0 15.5282 4.49009 20.0185 10.0093 20.0185C15.5282 20.0185 20.0185 15.5282 20.0185 10.0093C20.0185 9.59255 19.6808 9.25477 19.264 9.25477Z" fill="white"/>
</g>
<g clip-path="url(#clip1_60_81)">
<path d="M19.4461 29.7182C19.1516 29.4232 18.6738 29.4227 18.3793 29.7169L9.32824 38.7441L6.06264 35.1973C5.78046 34.8911 5.30338 34.8712 4.99658 35.1533C4.69 35.4355 4.67038 35.9128 4.95255 36.2194L8.75005 40.3436C8.81884 40.4183 8.90205 40.4784 8.99467 40.5202C9.08728 40.562 9.1874 40.5846 9.28898 40.5867C9.2945 40.587 9.29981 40.587 9.30509 40.587C9.50475 40.5869 9.69625 40.5078 9.83773 40.3669L19.4446 30.7852C19.7399 30.491 19.7404 30.0132 19.4461 29.7182Z" fill="white"/>
<path d="M19.264 36.2362C18.8473 36.2362 18.5096 36.574 18.5096 36.9907C18.5096 41.678 14.6965 45.491 10.0093 45.491C5.32227 45.491 1.50893 41.678 1.50893 36.9907C1.50893 32.3037 5.32227 28.4904 10.0093 28.4904C10.426 28.4904 10.7637 28.1526 10.7637 27.7359C10.7637 27.3192 10.426 26.9814 10.0093 26.9814C4.49009 26.9814 0 31.4715 0 36.9907C0 42.5096 4.49009 47 10.0093 47C15.5282 47 20.0185 42.5096 20.0185 36.9907C20.0185 36.574 19.6808 36.2362 19.264 36.2362Z" fill="white"/>
</g>
<g clip-path="url(#clip2_60_81)">
<path d="M46.2455 9.25477C45.8288 9.25477 45.4911 9.59251 45.4911 10.0093C45.4911 14.6965 41.678 18.5096 36.9907 18.5096C32.3038 18.5096 28.4904 14.6965 28.4904 10.0093C28.4904 5.32227 32.3038 1.50893 36.9907 1.50893C37.4075 1.50893 37.7452 1.1712 37.7452 0.754487C37.7452 0.337734 37.4075 0 36.9907 0C31.4716 0 26.9815 4.49009 26.9815 10.0093C26.9815 15.5282 31.4716 20.0185 36.9907 20.0185C42.5097 20.0185 47 15.5282 47 10.0093C47 9.59255 46.6623 9.25477 46.2455 9.25477Z" fill="white"/>
<path d="M34.822 0.980392C34.8861 1.39215 35.2718 1.67393 35.6836 1.60984C40.3151 0.889036 44.6692 4.07037 45.39 8.70188C46.1107 13.3331 42.9294 17.6875 38.2979 18.4083C33.6667 19.129 29.3123 15.9475 28.5915 11.3162C28.5274 10.9045 28.1418 10.6227 27.73 10.6867C27.3182 10.7508 27.0365 11.1365 27.1005 11.5483C27.9493 17.0018 33.0764 20.748 38.53 19.8993C43.9832 19.0506 47.7297 13.9234 46.8809 8.46984C46.0322 3.01655 40.9048 -0.729843 35.4515 0.118856C35.0398 0.182938 34.7579 0.568597 34.822 0.980392Z" fill="white"/>
</g>
<g clip-path="url(#clip3_60_81)">
<path d="M46.2455 36.2362C45.8288 36.2362 45.4911 36.574 45.4911 36.9907C45.4911 41.678 41.678 45.491 36.9907 45.491C32.3038 45.491 28.4904 41.678 28.4904 36.9907C28.4904 32.3037 32.3038 28.4904 36.9907 28.4904C37.4075 28.4904 37.7452 28.1526 37.7452 27.7359C37.7452 27.3192 37.4075 26.9814 36.9907 26.9814C31.4716 26.9814 26.9815 31.4715 26.9815 36.9907C26.9815 42.5096 31.4716 47 36.9907 47C42.5097 47 47 42.5096 47 36.9907C47 36.574 46.6623 36.2362 46.2455 36.2362Z" fill="white"/>
<path d="M36.0861 27.7494C36.0929 28.166 36.436 28.4982 36.8527 28.4915C41.5394 28.4154 45.4138 32.166 45.4899 36.8527C45.566 41.539 41.8154 45.4138 37.1288 45.4899C32.4424 45.566 28.5676 41.8151 28.4915 37.1287C28.4848 36.712 28.1416 36.3798 27.7249 36.3866C27.3082 36.3933 26.976 36.7365 26.9828 37.1532C27.0724 42.6716 31.6348 47.0882 37.1533 46.9986C42.6715 46.909 47.0883 42.3466 46.9987 36.8282C46.9091 31.31 42.3464 26.8931 36.8282 26.9827C36.4116 26.9895 36.0793 27.3327 36.0861 27.7494Z" fill="white"/>
</g>
<defs>
<clipPath id="clip0_60_81">
<rect width="20.0185" height="20.0185" fill="white"/>
</clipPath>
<clipPath id="clip1_60_81">
<rect width="20.0185" height="20.0185" fill="white" transform="translate(0 26.9814)"/>
</clipPath>
<clipPath id="clip2_60_81">
<rect width="20.0185" height="20.0185" fill="white" transform="translate(26.9815)"/>
</clipPath>
<clipPath id="clip3_60_81">
<rect width="20.0185" height="20.0185" fill="white" transform="translate(26.9815 26.9814)"/>
</clipPath>
</defs>
</svg>
