<svg width="48" height="48" viewBox="0 0 48 48" fill="none" xmlns="http://www.w3.org/2000/svg">
<g clip-path="url(#clip0_60_57)">
<path d="M29.429 19.5412L22.217 26.3531L18.7558 22.7922C18.372 22.3971 17.7402 22.3881 17.3456 22.7718C16.9505 23.156 16.9415 23.7874 17.3252 24.1825L21.4765 28.444C21.662 28.6307 21.9127 28.7382 22.1758 28.7437C22.439 28.7492 22.694 28.6524 22.8871 28.4736L30.8196 20.9917C30.915 20.9017 30.9917 20.7939 31.0453 20.6743C31.099 20.5547 31.1285 20.4257 31.1322 20.2947C31.1359 20.1636 31.1137 20.0332 31.067 19.9107C31.0202 19.7883 30.9498 19.6762 30.8596 19.581C30.4735 19.1797 29.837 19.1621 29.429 19.5412Z" fill="white"/>
<path d="M24.0773 9.05811C15.8349 9.05811 9.13284 15.7602 9.13284 24.0028C9.13284 32.2456 15.8349 38.9476 24.0773 38.9476C32.3202 38.9476 39.0223 32.2456 39.0223 24.0027C39.0223 15.7603 32.3202 9.05811 24.0773 9.05811ZM24.0773 36.947C16.9353 36.947 11.1335 31.135 11.1335 24.0027C11.1335 16.8703 16.9353 11.0588 24.0773 11.0588C31.2265 11.0588 37.0217 16.8539 37.0217 24.0027C37.0217 31.1514 31.2264 36.947 24.0773 36.947Z" fill="white"/>
<path d="M44.644 18.5009L44.9741 12.5689C44.9853 12.374 44.9392 12.1802 44.8414 12.0112C44.7436 11.8423 44.5985 11.7058 44.4239 11.6186L39.1422 8.94783L36.4714 3.66618C36.3824 3.49299 36.2456 3.34904 36.0771 3.25149C35.9086 3.15395 35.7156 3.10691 35.5211 3.11601L29.579 3.43641L24.6275 0.164986C24.4642 0.0573627 24.2729 0 24.0773 0C23.8817 0 23.6905 0.0573627 23.5272 0.164986L18.5756 3.43641L12.6442 3.1062C12.4493 3.09472 12.2553 3.14075 12.0864 3.23856C11.9174 3.33637 11.7809 3.48166 11.6939 3.65638L9.02262 8.93803L3.74137 11.6089C3.56807 11.6977 3.42402 11.8345 3.32645 12.0031C3.22889 12.1716 3.18193 12.3646 3.1912 12.5592L3.5209 18.491L0.249977 23.4426C0.142354 23.6059 0.0849915 23.7972 0.0849915 23.9927C0.0849915 24.1883 0.142354 24.3796 0.249977 24.5429L3.5112 29.5043L3.18099 35.4362C3.16964 35.6311 3.21572 35.825 3.31352 35.9939C3.41131 36.1628 3.55653 36.2993 3.73117 36.3865L9.01282 39.0573L11.6837 44.339C11.7725 44.5123 11.9093 44.6563 12.0778 44.7539C12.2464 44.8515 12.4394 44.8984 12.6339 44.8892L18.5658 44.5591L23.5173 47.8299C23.6794 47.9408 23.8712 48.0001 24.0675 48.0001C24.2639 48.0001 24.4557 47.9408 24.6177 47.8299L29.5692 44.559L35.5013 44.8892C35.6961 44.9004 35.89 44.8543 36.0589 44.7565C36.2278 44.6587 36.3643 44.5135 36.4516 44.339L39.1223 39.0573L44.404 36.3865C44.5772 36.2976 44.7212 36.1607 44.8187 35.9922C44.9163 35.8237 44.9633 35.6307 44.9542 35.4362L44.624 29.5044L47.895 24.5528C48.0026 24.3895 48.06 24.1982 48.06 24.0026C48.06 23.8071 48.0026 23.6158 47.895 23.4525L44.644 18.5009ZM42.7832 28.6841C42.6611 28.8631 42.6047 29.0787 42.6234 29.2945L42.9332 34.9059L37.9419 37.4267C37.7516 37.5222 37.5972 37.6767 37.5019 37.8671L34.9807 42.8584L29.3693 42.5486C29.1545 42.5407 28.9422 42.5963 28.7589 42.7084L24.0774 45.7996L19.3963 42.7084C19.2338 42.5985 19.0423 42.5393 18.8461 42.5384H18.7961L13.1841 42.8487L10.6633 37.8569C10.568 37.6665 10.4135 37.5121 10.223 37.4169L5.22143 34.9059L5.53173 29.2945C5.53953 29.0795 5.48371 28.8674 5.37148 28.6841L2.28071 24.0026L5.37148 19.321C5.49381 19.1423 5.55044 18.9268 5.53173 18.7111L5.22143 13.0991L10.2133 10.5784C10.4036 10.4831 10.5579 10.3288 10.6532 10.1385L13.174 5.14664L18.7859 5.45694C19.0004 5.46434 19.2126 5.40893 19.3963 5.29669L24.0773 2.20592L28.7589 5.29669C28.9377 5.41901 29.1534 5.47563 29.3693 5.45694L34.9807 5.14664L37.5019 10.1385C37.5973 10.3288 37.7516 10.4831 37.9419 10.5784L42.9332 13.0992L42.6234 18.711C42.6157 18.9256 42.6713 19.1377 42.7832 19.321L45.8744 24.0025L42.7832 28.6841Z" fill="white"/>
</g>
<defs>
<clipPath id="clip0_60_57">
<rect width="48" height="48" fill="white"/>
</clipPath>
</defs>
</svg>
