<svg width="33" height="44" viewBox="0 0 33 44" fill="none" xmlns="http://www.w3.org/2000/svg">
<g clip-path="url(#clip0_60_48)">
<path d="M22.9172 0.286C22.8321 0.196509 22.73 0.125105 22.6171 0.0759883C22.5042 0.026872 22.3827 0.00103584 22.2598 0L4.60165 0C2.06703 0.00647059 0.0119095 2.07521 0 4.63266V39.3673C0.0118179 41.9248 2.06703 43.9935 4.60165 44H28.3785C30.9133 43.9935 32.9684 41.9248 32.9802 39.3673V11.1047C32.9764 10.8621 32.8799 10.6303 32.7108 10.4577L22.9172 0.286ZM23.1777 3.21468L29.8769 10.1681H24.092C23.9725 10.1693 23.8539 10.1466 23.7431 10.1013C23.6323 10.056 23.5315 9.98903 23.4465 9.90416C23.3615 9.81939 23.294 9.71846 23.2479 9.60721C23.2017 9.49596 23.1779 9.37659 23.1777 9.25599V3.21468ZM28.3785 42.1513H4.60165C3.07833 42.1462 1.84295 40.9045 1.83223 39.3673V4.63266C1.84295 3.09553 3.07833 1.85382 4.60165 1.84874H21.3455V9.25599C21.3459 9.61931 21.4173 9.97898 21.5556 10.3144C21.6939 10.6499 21.8964 10.9545 22.1515 11.2109C22.4066 11.4673 22.7093 11.6705 23.0423 11.8088C23.3752 11.9471 23.732 12.0178 24.092 12.0168H31.148V39.3673C31.1372 40.9045 29.9019 42.1462 28.3785 42.1513Z" fill="white"/>
<path d="M5.79984 20.336H16.1869C16.6929 20.336 17.103 19.9222 17.103 19.4117C17.103 18.9011 16.6929 18.4873 16.1869 18.4873H5.79994C5.29387 18.4873 4.88382 18.9011 4.88382 19.4117C4.88382 19.9222 5.29387 20.336 5.79994 20.336H5.79984ZM27.1804 22.4621H5.79994C5.29387 22.4621 4.88382 22.8759 4.88382 23.3865C4.88382 23.897 5.29387 24.3108 5.79994 24.3108H27.1803C27.6863 24.3108 28.0964 23.897 28.0964 23.3865C28.0964 22.8759 27.6863 22.4621 27.1803 22.4621H27.1804ZM27.1804 26.4369H5.79994C5.29387 26.4369 4.88382 26.8507 4.88382 27.3613C4.88382 27.8718 5.29387 28.2856 5.79994 28.2856H27.1803C27.6863 28.2856 28.0964 27.8718 28.0964 27.3613C28.0964 26.8507 27.6863 26.4369 27.1803 26.4369H27.1804ZM27.1804 30.4117H5.79994C5.29387 30.4117 4.88382 30.8255 4.88382 31.336C4.88382 31.8466 5.29387 32.2604 5.79994 32.2604H27.1803C27.6863 32.2604 28.0964 31.8466 28.0964 31.336C28.0964 30.8255 27.6863 30.4117 27.1803 30.4117H27.1804Z" fill="white"/>
</g>
<defs>
<clipPath id="clip0_60_48">
<rect width="33" height="44" fill="white"/>
</clipPath>
</defs>
</svg>
